<svg width="87" height="12" viewBox="0 0 87 12" fill="none" xmlns="http://www.w3.org/2000/svg">
<path d="M5.84801 3.94391C5.68696 5.63221 3.87009 7.15975 3.25589 8.1245C2.65061 9.07521 2.4507 9.97237 2.92987 11.755C2.93843 11.7869 2.90518 11.8155 2.87281 11.8023C2.24548 11.5466 7.54905e-07 10.5966 0 8.08601C-1.00486e-06 4.74422 4.02409 4.65822 3.74968 0.0433049C3.74778 0.0112723 3.78554 -0.0114821 3.81442 0.00614174C5.1782 0.838289 6.00636 2.28376 5.84801 3.94391Z" fill="#0CA28B"/>
<path d="M3.22704 11.8625C3.21065 11.8575 3.19909 11.8435 3.19816 11.8275C3.13257 10.7032 3.7767 9.97316 4.50021 9.43349C6.15512 8.19912 7.14674 6.51258 6.61205 4.56049C6.6015 4.52178 6.65114 4.49393 6.68087 4.52281C7.10717 4.93682 7.58322 5.61845 7.82831 6.09375C8.8409 8.11263 8.30049 10.4262 5.87753 11.5938C5.10577 11.9493 4.18687 12.1509 3.22704 11.8625Z" fill="#3BBEAA"/>
<path fill-rule="evenodd" clip-rule="evenodd" d="M16.2077 3.06342V6.54957H12.6019V3.51196C12.6019 3.2642 12.3913 3.06342 12.1315 3.06342H10.9145V11.3711C10.9145 11.6187 11.1252 11.8196 11.3849 11.8196H12.6019V7.95572H16.2077V11.3711C16.2077 11.6187 16.4182 11.8196 16.6781 11.8196H17.8951V3.51196C17.8951 3.2642 17.6844 3.06342 17.4245 3.06342H16.2077Z" fill="white"/>
<path fill-rule="evenodd" clip-rule="evenodd" d="M23.4295 5.12456V9.27865C23.4295 9.65611 23.2236 10.0139 22.8745 10.2027C21.8994 10.7298 20.8906 10.0715 20.8906 9.20327V5.57351C20.8906 5.32545 20.6758 5.12444 20.4107 5.12444H19.1639L19.1638 9.35149C19.1638 10.7114 20.3532 11.8241 21.8066 11.8241H22.5133C23.9669 11.8241 25.1561 10.7114 25.1561 9.35138V5.57351C25.1561 5.32545 24.9413 5.12444 24.6763 5.12444L23.4295 5.12456Z" fill="white"/>
<path fill-rule="evenodd" clip-rule="evenodd" d="M42.5864 11.8201H43.807V5.92846C43.807 5.68008 43.5957 5.47874 43.3352 5.47874H42.1147V11.3703C42.1147 11.6187 42.3258 11.8201 42.5864 11.8201Z" fill="white"/>
<path fill-rule="evenodd" clip-rule="evenodd" d="M42.9724 4.81074C43.4921 4.81074 43.9136 4.41962 43.9136 3.93708C43.9136 3.45454 43.4921 3.06342 42.9724 3.06342C42.4524 3.06342 42.031 3.45454 42.031 3.93708C42.031 4.41962 42.4524 4.81074 42.9724 4.81074Z" fill="white"/>
<path fill-rule="evenodd" clip-rule="evenodd" d="M31.2176 9.04133C31.2176 9.83945 30.5243 10.3708 29.6768 10.3708C28.8294 10.3708 28.1362 9.83945 28.1362 9.04133V7.90231C28.1362 7.1042 28.8294 6.57282 29.6768 6.57282C30.5243 6.57282 31.2176 7.1042 31.2176 7.90231V9.04133ZM29.6768 5.12444C27.8853 5.12444 26.4192 6.33158 26.4192 8.01901V8.93172C26.4192 10.6193 27.8853 11.8192 29.6768 11.8192C31.4685 11.8192 32.9344 10.6193 32.9344 8.93172V8.01901C32.9344 6.33158 31.4685 5.12444 29.6768 5.12444Z" fill="white"/>
<path fill-rule="evenodd" clip-rule="evenodd" d="M39.0348 9.04363C39.0348 9.8412 38.3369 10.3722 37.4841 10.3722C36.6311 10.3722 35.9333 9.8412 35.9333 9.04363V7.90539C35.9333 7.10777 36.6311 6.57678 37.4841 6.57678C38.3369 6.57678 39.0348 7.10777 39.0348 7.90539V9.04363ZM37.4841 5.12937C36.9204 5.12937 36.389 5.24715 35.9244 5.4607V3.51146C35.9244 3.26403 35.7098 3.06342 35.4452 3.06342H34.2052V8.93407C34.2052 10.6205 35.6807 11.8196 37.4841 11.8196C39.2873 11.8196 40.7628 10.6205 40.7628 8.93407V8.02197C40.7628 6.33571 39.2873 5.12937 37.4841 5.12937Z" fill="white"/>
<path d="M86.9946 11.7896V10.7793C86.9946 10.7225 86.9827 10.6663 86.9595 10.6138C86.9362 10.5613 86.9023 10.5137 86.8594 10.4737C86.8165 10.4336 86.7652 10.402 86.7092 10.3804C86.6532 10.3589 86.5936 10.3481 86.5328 10.3484H85.6861C84.9901 10.3484 85.0223 10.021 85.0223 9.17505V3.50855C85.0223 3.39415 84.974 3.28442 84.8882 3.2034C84.8024 3.12238 84.6856 3.07669 84.5634 3.07634H83.3103V9.37128C83.3103 10.8947 83.7334 11.7909 85.4799 11.7909C86.1562 11.7909 86.6472 11.7723 87 11.7909L86.9946 11.7896Z" fill="white"/>
<path d="M54.1213 6.59261H50.8276V7.44072C50.8276 7.50128 50.8402 7.56123 50.8647 7.6172C50.8892 7.67317 50.9251 7.72399 50.9703 7.7668C51.0156 7.80966 51.0694 7.84362 51.1286 7.86679C51.1877 7.88997 51.2511 7.90191 51.3151 7.90191H52.8759V8.65064C52.8759 9.20325 52.7357 9.61141 52.4289 9.89894C52.0454 10.2396 51.5434 10.4359 51.0175 10.4508C50.4916 10.4657 49.9781 10.2981 49.5736 9.9798C49.1282 9.56633 49.0315 9.11709 49.0315 7.45266C49.0315 5.78819 49.1282 5.35089 49.5736 4.93477C49.9029 4.6313 50.5432 4.40469 51.0756 4.40469C52.8731 4.40469 53.4755 5.00765 53.9266 5.55762H53.9854V4.32915C53.9843 4.23942 53.9621 4.15105 53.9201 4.07055C53.8782 3.99005 53.8177 3.91947 53.7431 3.86401C52.9907 3.29418 52.2398 3.08612 50.941 3.08612C49.9638 3.06346 49.0143 3.39536 48.2875 4.01376C47.2984 4.85791 47.2984 5.81208 47.2984 7.39039V7.5229C47.2984 9.10121 47.2984 10.0553 48.2875 10.8995C49.0457 11.5072 50.0108 11.8346 51.0045 11.8212C51.9982 11.8078 52.9531 11.4545 53.6927 10.8266C54.3343 10.2435 54.5963 9.12771 54.5963 7.96684V7.0564C54.5971 6.93567 54.5478 6.81947 54.459 6.73275C54.3701 6.64603 54.2489 6.5957 54.1213 6.59261Z" fill="white"/>
<path d="M59.5722 10.7793C59.5722 10.7225 59.5602 10.6663 59.537 10.6138C59.5138 10.5613 59.4797 10.5137 59.4368 10.4737C59.3939 10.4336 59.343 10.402 59.287 10.3804C59.2311 10.3589 59.1711 10.3481 59.1106 10.3484H58.2636C57.5677 10.3484 57.6001 10.021 57.6001 9.17505V3.50855C57.6001 3.39393 57.5516 3.28399 57.4653 3.20293C57.379 3.12188 57.262 3.07634 57.1399 3.07634H55.8806V9.37128C55.8806 10.8947 56.3042 11.7909 58.0518 11.7909C58.728 11.7909 59.2193 11.7723 59.5722 11.7909V10.7793Z" fill="white"/>
<path d="M64.0309 5.12874C62.2504 5.12874 60.7941 6.33499 60.7941 8.0238V8.93651C60.7941 10.6239 62.2504 11.8235 64.0309 11.8235C65.8108 11.8235 67.2672 10.6239 67.2672 8.93651V8.0238C67.2672 6.33632 65.812 5.12874 64.0309 5.12874ZM65.5606 9.05177C65.5606 9.85597 64.8723 10.3814 64.0291 10.3814C63.1866 10.3814 62.4995 9.84524 62.4995 9.05177V7.91253C62.4995 7.10838 63.1883 6.58298 64.0291 6.58298C64.8705 6.58298 65.5606 7.11906 65.5606 7.91253V9.05177Z" fill="white"/>
<path d="M81.2938 5.72328C80.7867 5.33934 80.0442 5.14605 79.0866 5.14605C78.7148 5.14694 78.3435 5.17099 77.9753 5.21803C77.669 5.25669 77.2358 5.31268 76.9349 5.37801C76.8121 5.40467 76.7936 5.49399 76.7936 5.60332V6.46714C76.7936 6.62044 76.7936 6.76048 76.967 6.72044C77.2894 6.64716 77.9133 6.51647 78.0843 6.48981C78.3709 6.44706 78.6612 6.4261 78.9513 6.42715C79.431 6.42715 79.7987 6.50851 80.0382 6.66712C80.2784 6.82579 80.3803 7.10304 80.3803 7.51501V7.56567C80.2957 7.55765 80.2009 7.55102 80.0978 7.54432C79.906 7.53232 79.6616 7.52569 79.3637 7.52569C78.9674 7.52519 78.573 7.56993 78.1886 7.65897C77.8323 7.738 77.492 7.87323 77.1833 8.05889C76.8943 8.23476 76.6524 8.47158 76.4772 8.75082C76.2991 9.04526 76.2091 9.37969 76.2162 9.71866C76.2067 10.0498 76.2836 10.3781 76.4403 10.6745C76.5904 10.9444 76.8103 11.1738 77.0803 11.3411C77.3812 11.5232 77.7173 11.6487 78.0688 11.7103C78.4818 11.7874 78.9025 11.8244 79.3238 11.821C79.6599 11.821 82.0744 11.789 82.0744 10.7038V7.56031C82.0702 6.72846 81.8092 6.10853 81.2938 5.72328ZM80.3773 10.4732C80.2444 10.4972 80.099 10.5158 79.9411 10.5292C79.5621 10.5661 79.1808 10.5683 78.8018 10.5359C78.651 10.5237 78.5038 10.4858 78.368 10.4239C78.2422 10.3646 78.135 10.276 78.0557 10.1666C77.964 10.0251 77.9211 9.86019 77.933 9.69466C77.9228 9.55689 77.9514 9.41896 78.017 9.29535C78.0819 9.17175 78.1815 9.067 78.3042 8.99211C78.57 8.83079 78.971 8.74811 79.499 8.74811C79.6402 8.74811 79.8142 8.75612 80.0204 8.77211C80.1544 8.7788 80.273 8.78947 80.3773 8.79877V10.4732Z" fill="white"/>
<path fill-rule="evenodd" clip-rule="evenodd" d="M73.3447 9.04363C73.3447 9.8412 72.6469 10.3722 71.7942 10.3722C70.9415 10.3722 70.2437 9.8412 70.2437 9.04363V7.90539C70.2437 7.10777 70.9415 6.57678 71.7942 6.57678C72.6469 6.57678 73.3447 7.10777 73.3447 7.90539V9.04363ZM71.7942 5.12937C71.2305 5.12937 70.6989 5.24715 70.2347 5.4607V3.51146C70.2347 3.26403 70.0196 3.06342 69.7551 3.06342H68.515V8.93407C68.515 10.6205 69.991 11.8196 71.7942 11.8196C73.5973 11.8196 75.0727 10.6205 75.0727 8.93407V8.02197C75.0727 6.33571 73.5973 5.12937 71.7942 5.12937Z" fill="white"/>
</svg>
