<svg width="55" height="55" viewBox="0 0 55 55" fill="none" xmlns="http://www.w3.org/2000/svg">
<path d="M21.3018 6.68164L15.4688 12.5146V8.59375H13.75V14.9424L14.0186 15.2002L14.2764 15.4688H20.625V13.75H16.7041L27.5 2.9541L28.7783 4.24316L30.0674 5.53223L29.3906 6.42383C26.3184 10.4736 25.792 16.1348 28.0586 20.6787C29.3584 23.2783 31.7217 25.6416 34.3213 26.9414C38.8652 29.208 44.5264 28.6816 48.5762 25.6094L49.4678 24.9326L50.7568 26.2217L52.0459 27.5L41.5186 38.0273L42.1416 38.6396L42.7539 39.2627L48.4473 33.5693C53.7432 28.2734 54.1406 27.8438 54.1406 27.5C54.1406 27.1777 53.9688 26.9629 52.4326 25.416L50.7246 23.6865L51.3906 22.7949C54.4629 18.7344 54.9893 13.084 52.7227 8.54004C51.4229 5.94043 49.0596 3.57715 46.46 2.27734C41.916 0.0107422 36.2656 0.537109 32.2051 3.60938L31.3135 4.27539L29.584 2.56738C28.0371 1.03125 27.8223 0.859375 27.5 0.859375C27.1562 0.859375 26.7158 1.26758 21.3018 6.68164ZM42.2168 2.73926C44.7412 3.11523 47.04 4.28613 48.877 6.12305C52.5293 9.77539 53.4424 15.2002 51.1973 19.8193C47.5449 27.3281 37.7588 28.9502 31.8506 23.042C29.165 20.3564 27.9082 16.4678 28.5205 12.7295C29.1328 8.94824 31.4961 5.69336 34.9014 3.93164C37.1895 2.75 39.6602 2.3418 42.2168 2.73926Z" fill="#FC9831"/>
<path d="M38.5967 4.45801C36.4697 4.84473 34.6865 5.7793 33.1289 7.34766C31.3564 9.12012 30.3252 11.3223 30.1211 13.7607L30.0459 14.6094H31.7646L31.8291 13.8789C32.0869 11.1719 33.5693 8.75488 35.8574 7.33692C37.0498 6.5957 38.8652 6.01563 40.0254 6.01563H40.3906V4.29688L39.8857 4.30762C39.5957 4.30762 39.0264 4.38281 38.5967 4.45801Z" fill="#FC9831"/>
<path d="M39.5312 8.69043L38.9619 8.94824C38.2529 9.27051 37.6943 9.81836 37.3076 10.5596C37.0498 11.043 37.0068 11.2363 37.0068 12.0313C37.0176 12.8584 37.0498 13.0088 37.3721 13.6211C37.9414 14.6738 38.8652 15.2969 40.0361 15.4258C40.96 15.5225 41.3145 15.6514 41.6689 16.0596C42.7539 17.2949 41.6475 19.1641 40.0146 18.8633C39.4668 18.7559 38.9082 18.2188 38.7578 17.6602L38.6289 17.1875H36.9209L36.9854 17.6709C37.1357 18.7451 37.9414 19.8086 38.9619 20.2705L39.5312 20.5283V22.3438H41.25V20.5283L41.8193 20.2705C42.5283 19.9482 43.0869 19.4004 43.4736 18.6592C43.7314 18.1758 43.7744 17.9824 43.7744 17.1875C43.7637 16.3604 43.7314 16.21 43.4092 15.5977C42.8398 14.5449 41.916 13.9219 40.7451 13.793C39.8213 13.6963 39.4668 13.5674 39.1123 13.1592C38.0273 11.9238 39.1338 10.0547 40.7666 10.3555C41.3145 10.4629 41.873 11 42.0234 11.5586L42.1523 12.0313H43.8604L43.7959 11.5479C43.6455 10.4736 42.8398 9.41016 41.8193 8.94824L41.25 8.69043V6.875H39.5312V8.69043Z" fill="#FC9831"/>
<path d="M48.9521 15.3291C48.8125 16.7578 48.3506 18.1006 47.5986 19.25C46.127 21.4951 43.7744 22.9131 41.1211 23.1709L40.3906 23.2354V24.9219H40.8096C41.5186 24.9219 43.0332 24.6104 43.9355 24.2881C45.3643 23.7617 46.4385 23.0635 47.6416 21.8604C49.4785 20.0234 50.4453 17.9609 50.6602 15.4365L50.7354 14.6094H49.0166L48.9521 15.3291Z" fill="#FC9831"/>
<path d="M6.52051 21.4629C1.25684 26.7266 0.859375 27.1562 0.859375 27.5C0.859375 27.8223 1.03125 28.0371 2.56738 29.584L4.27539 31.3135L3.60938 32.2051C0.537109 36.2656 0.0107422 41.916 2.27734 46.46C3.57715 49.0596 5.94043 51.4229 8.54004 52.7227C13.084 54.9893 18.7344 54.4629 22.7949 51.3906L23.6865 50.7246L25.416 52.4326C26.9629 53.9688 27.1777 54.1406 27.5 54.1406C27.8438 54.1406 28.2842 53.7324 33.6982 48.3184L39.5312 42.4854V46.4062H41.25V40.0576L40.9814 39.7998L40.7236 39.5312H34.375V41.25H38.2959L27.5 52.0459L26.2217 50.7568L24.9326 49.4678L25.6094 48.5762C28.6816 44.5264 29.208 38.8652 26.9414 34.3213C25.6416 31.7217 23.2783 29.3584 20.6787 28.0586C16.1348 25.792 10.4736 26.3184 6.42383 29.3906L5.53223 30.0674L4.24316 28.7783L2.9541 27.5L8.19629 22.2578C11.0752 19.3789 13.4277 16.9727 13.4277 16.9189C13.4277 16.7793 12.4395 15.791 12.2998 15.791C12.2354 15.791 9.63574 18.3369 6.52051 21.4629ZM16.4355 28.5205C18.96 28.8965 21.2588 30.0674 23.0957 31.9043C26.748 35.5566 27.6611 40.9814 25.416 45.6006C21.7637 53.1094 11.9775 54.7314 6.06934 48.8232C3.38379 46.1377 2.12695 42.249 2.73926 38.5107C3.35156 34.7295 5.71484 31.4746 9.12012 29.7129C11.4082 28.5312 13.8789 28.123 16.4355 28.5205Z" fill="#FC9831"/>
<path d="M12.8154 30.2393C10.6885 30.626 8.90527 31.5605 7.34766 33.1289C5.5752 34.9014 4.54395 37.1035 4.33984 39.542L4.26465 40.3906H5.9834L6.04785 39.6602C6.30566 36.9531 7.78809 34.5361 10.0762 33.1182C11.2686 32.377 13.084 31.7969 14.2441 31.7969H14.6094V30.0781L14.1045 30.0889C13.8145 30.0889 13.2451 30.1641 12.8154 30.2393Z" fill="#FC9831"/>
<path d="M12.0312 34.375H10.3125V36.0938H11.1719V44.6875H10.3125V46.4062H12.0312V48.125H13.75V46.4062H14.6094V48.125H16.3281V46.3096L16.8975 46.0518C17.6064 45.7295 18.165 45.1816 18.5518 44.4404C18.7988 43.9678 18.8525 43.7529 18.8525 43.0225C18.8525 42.3135 18.7988 42.0664 18.5732 41.5723C18.4121 41.25 18.1543 40.8525 18.0039 40.6807L17.7139 40.3906L18.0039 40.0898C18.1543 39.9287 18.4121 39.5312 18.5732 39.209C18.7988 38.7148 18.8525 38.4678 18.8525 37.7588C18.8525 37.0283 18.7988 36.8135 18.5518 36.3408C18.165 35.5996 17.6064 35.0518 16.8975 34.7295L16.3281 34.4717V32.6562H14.6094V34.375H13.75V32.6562H12.0312V34.375ZM16.3926 36.373C16.9619 36.792 17.1338 37.1357 17.1338 37.8125C17.1338 38.4893 16.9619 38.833 16.3926 39.252C16.1348 39.4561 15.9199 39.4775 14.4912 39.5098L12.8906 39.542V36.083L14.4912 36.1152C15.9199 36.1475 16.1348 36.1689 16.3926 36.373ZM16.3926 41.5293C16.9619 41.9482 17.1338 42.292 17.1338 42.9688C17.1338 43.6455 16.9619 43.9893 16.3926 44.4082C16.1348 44.6123 15.9199 44.6338 14.4912 44.666L12.8906 44.6982V41.2393L14.4912 41.2715C15.9199 41.3037 16.1348 41.3252 16.3926 41.5293Z" fill="#FC9831"/>
<path d="M23.1709 41.1104C22.9131 43.7744 21.4951 46.127 19.25 47.5986C18.1006 48.3506 16.7578 48.8125 15.3398 48.9521L14.6094 49.0166V50.7031H15.0283C15.7373 50.7031 17.252 50.3916 18.1543 50.0693C19.583 49.543 20.6572 48.8447 21.8604 47.6416C23.6973 45.8047 24.6641 43.7422 24.8789 41.2178L24.9541 40.3906H23.2354L23.1709 41.1104Z" fill="#FC9831"/>
<path d="M21.3018 6.68164L15.4688 12.5146V8.59375H13.75V14.9424L14.0186 15.2002L14.2764 15.4688H20.625V13.75H16.7041L27.5 2.9541L28.7783 4.24316L30.0674 5.53223L29.3906 6.42383C26.3184 10.4736 25.792 16.1348 28.0586 20.6787C29.3584 23.2783 31.7217 25.6416 34.3213 26.9414C38.8652 29.208 44.5264 28.6816 48.5762 25.6094L49.4678 24.9326L50.7568 26.2217L52.0459 27.5L41.5186 38.0273L42.1416 38.6396L42.7539 39.2627L48.4473 33.5693C53.7432 28.2734 54.1406 27.8438 54.1406 27.5C54.1406 27.1777 53.9688 26.9629 52.4326 25.416L50.7246 23.6865L51.3906 22.7949C54.4629 18.7344 54.9893 13.084 52.7227 8.54004C51.4229 5.94043 49.0596 3.57715 46.46 2.27734C41.916 0.0107422 36.2656 0.537109 32.2051 3.60938L31.3135 4.27539L29.584 2.56738C28.0371 1.03125 27.8223 0.859375 27.5 0.859375C27.1562 0.859375 26.7158 1.26758 21.3018 6.68164ZM42.2168 2.73926C44.7412 3.11523 47.04 4.28613 48.877 6.12305C52.5293 9.77539 53.4424 15.2002 51.1973 19.8193C47.5449 27.3281 37.7588 28.9502 31.8506 23.042C29.165 20.3564 27.9082 16.4678 28.5205 12.7295C29.1328 8.94824 31.4961 5.69336 34.9014 3.93164C37.1895 2.75 39.6602 2.3418 42.2168 2.73926Z" stroke="#FC9831" stroke-width="0.4"/>
<path d="M38.5967 4.45801C36.4697 4.84473 34.6865 5.7793 33.1289 7.34766C31.3564 9.12012 30.3252 11.3223 30.1211 13.7607L30.0459 14.6094H31.7646L31.8291 13.8789C32.0869 11.1719 33.5693 8.75488 35.8574 7.33692C37.0498 6.5957 38.8652 6.01563 40.0254 6.01563H40.3906V4.29688L39.8857 4.30762C39.5957 4.30762 39.0264 4.38281 38.5967 4.45801Z" stroke="#FC9831" stroke-width="0.4"/>
<path d="M39.5312 8.69043L38.9619 8.94824C38.2529 9.27051 37.6943 9.81836 37.3076 10.5596C37.0498 11.043 37.0068 11.2363 37.0068 12.0313C37.0176 12.8584 37.0498 13.0088 37.3721 13.6211C37.9414 14.6738 38.8652 15.2969 40.0361 15.4258C40.96 15.5225 41.3145 15.6514 41.6689 16.0596C42.7539 17.2949 41.6475 19.1641 40.0146 18.8633C39.4668 18.7559 38.9082 18.2188 38.7578 17.6602L38.6289 17.1875H36.9209L36.9854 17.6709C37.1357 18.7451 37.9414 19.8086 38.9619 20.2705L39.5312 20.5283V22.3438H41.25V20.5283L41.8193 20.2705C42.5283 19.9482 43.0869 19.4004 43.4736 18.6592C43.7314 18.1758 43.7744 17.9824 43.7744 17.1875C43.7637 16.3604 43.7314 16.21 43.4092 15.5977C42.8398 14.5449 41.916 13.9219 40.7451 13.793C39.8213 13.6963 39.4668 13.5674 39.1123 13.1592C38.0273 11.9238 39.1338 10.0547 40.7666 10.3555C41.3145 10.4629 41.873 11 42.0234 11.5586L42.1523 12.0313H43.8604L43.7959 11.5479C43.6455 10.4736 42.8398 9.41016 41.8193 8.94824L41.25 8.69043V6.875H39.5312V8.69043Z" stroke="#FC9831" stroke-width="0.4"/>
<path d="M48.9521 15.3291C48.8125 16.7578 48.3506 18.1006 47.5986 19.25C46.127 21.4951 43.7744 22.9131 41.1211 23.1709L40.3906 23.2354V24.9219H40.8096C41.5186 24.9219 43.0332 24.6104 43.9355 24.2881C45.3643 23.7617 46.4385 23.0635 47.6416 21.8604C49.4785 20.0234 50.4453 17.9609 50.6602 15.4365L50.7354 14.6094H49.0166L48.9521 15.3291Z" stroke="#FC9831" stroke-width="0.4"/>
<path d="M6.52051 21.4629C1.25684 26.7266 0.859375 27.1562 0.859375 27.5C0.859375 27.8223 1.03125 28.0371 2.56738 29.584L4.27539 31.3135L3.60938 32.2051C0.537109 36.2656 0.0107422 41.916 2.27734 46.46C3.57715 49.0596 5.94043 51.4229 8.54004 52.7227C13.084 54.9893 18.7344 54.4629 22.7949 51.3906L23.6865 50.7246L25.416 52.4326C26.9629 53.9688 27.1777 54.1406 27.5 54.1406C27.8438 54.1406 28.2842 53.7324 33.6982 48.3184L39.5312 42.4854V46.4062H41.25V40.0576L40.9814 39.7998L40.7236 39.5312H34.375V41.25H38.2959L27.5 52.0459L26.2217 50.7568L24.9326 49.4678L25.6094 48.5762C28.6816 44.5264 29.208 38.8652 26.9414 34.3213C25.6416 31.7217 23.2783 29.3584 20.6787 28.0586C16.1348 25.792 10.4736 26.3184 6.42383 29.3906L5.53223 30.0674L4.24316 28.7783L2.9541 27.5L8.19629 22.2578C11.0752 19.3789 13.4277 16.9727 13.4277 16.9189C13.4277 16.7793 12.4395 15.791 12.2998 15.791C12.2354 15.791 9.63574 18.3369 6.52051 21.4629ZM16.4355 28.5205C18.96 28.8965 21.2588 30.0674 23.0957 31.9043C26.748 35.5566 27.6611 40.9814 25.416 45.6006C21.7637 53.1094 11.9775 54.7314 6.06934 48.8232C3.38379 46.1377 2.12695 42.249 2.73926 38.5107C3.35156 34.7295 5.71484 31.4746 9.12012 29.7129C11.4082 28.5312 13.8789 28.123 16.4355 28.5205Z" stroke="#FC9831" stroke-width="0.4"/>
<path d="M12.8154 30.2393C10.6885 30.626 8.90527 31.5605 7.34766 33.1289C5.5752 34.9014 4.54395 37.1035 4.33984 39.542L4.26465 40.3906H5.9834L6.04785 39.6602C6.30566 36.9531 7.78809 34.5361 10.0762 33.1182C11.2686 32.377 13.084 31.7969 14.2441 31.7969H14.6094V30.0781L14.1045 30.0889C13.8145 30.0889 13.2451 30.1641 12.8154 30.2393Z" stroke="#FC9831" stroke-width="0.4"/>
<path d="M12.0312 34.375H10.3125V36.0938H11.1719V44.6875H10.3125V46.4062H12.0312V48.125H13.75V46.4062H14.6094V48.125H16.3281V46.3096L16.8975 46.0518C17.6064 45.7295 18.165 45.1816 18.5518 44.4404C18.7988 43.9678 18.8525 43.7529 18.8525 43.0225C18.8525 42.3135 18.7988 42.0664 18.5732 41.5723C18.4121 41.25 18.1543 40.8525 18.0039 40.6807L17.7139 40.3906L18.0039 40.0898C18.1543 39.9287 18.4121 39.5312 18.5732 39.209C18.7988 38.7148 18.8525 38.4678 18.8525 37.7588C18.8525 37.0283 18.7988 36.8135 18.5518 36.3408C18.165 35.5996 17.6064 35.0518 16.8975 34.7295L16.3281 34.4717V32.6562H14.6094V34.375H13.75V32.6562H12.0312V34.375ZM16.3926 36.373C16.9619 36.792 17.1338 37.1357 17.1338 37.8125C17.1338 38.4893 16.9619 38.833 16.3926 39.252C16.1348 39.4561 15.9199 39.4775 14.4912 39.5098L12.8906 39.542V36.083L14.4912 36.1152C15.9199 36.1475 16.1348 36.1689 16.3926 36.373ZM16.3926 41.5293C16.9619 41.9482 17.1338 42.292 17.1338 42.9688C17.1338 43.6455 16.9619 43.9893 16.3926 44.4082C16.1348 44.6123 15.9199 44.6338 14.4912 44.666L12.8906 44.6982V41.2393L14.4912 41.2715C15.9199 41.3037 16.1348 41.3252 16.3926 41.5293Z" stroke="#FC9831" stroke-width="0.4"/>
<path d="M23.1709 41.1104C22.9131 43.7744 21.4951 46.127 19.25 47.5986C18.1006 48.3506 16.7578 48.8125 15.3398 48.9521L14.6094 49.0166V50.7031H15.0283C15.7373 50.7031 17.252 50.3916 18.1543 50.0693C19.583 49.543 20.6572 48.8447 21.8604 47.6416C23.6973 45.8047 24.6641 43.7422 24.8789 41.2178L24.9541 40.3906H23.2354L23.1709 41.1104Z" stroke="#FC9831" stroke-width="0.4"/>
</svg>
