<svg width="55" height="38" viewBox="0 0 55 38" fill="none" xmlns="http://www.w3.org/2000/svg">
<path d="M53.9952 13.0362L48.7116 2.91786C48.2915 2.12193 47.5773 1.52146 46.721 1.24436C45.8647 0.967254 44.9341 1.03541 44.1273 1.43431L39.1257 3.935H35.6051L28.5159 0.727242C27.7683 0.389353 26.9246 0.329714 26.1369 0.559082L15.68 3.60758L10.8729 1.20403C10.0661 0.805403 9.13551 0.737379 8.27928 1.01444C7.42305 1.29149 6.70874 1.89176 6.28837 2.68748L1.00477 12.806C0.793521 13.2107 0.66498 13.6534 0.626646 14.1082C0.588311 14.5631 0.64095 15.021 0.781491 15.4554C0.922033 15.8897 1.14766 16.2916 1.44521 16.6378C1.74276 16.984 2.10628 17.2674 2.51455 17.4716L7.6708 20.0498L19.2784 29.1265C19.6574 29.4236 20.0949 29.6372 20.5623 29.7534L33.014 32.8663C33.2841 32.9338 33.5615 32.9679 33.84 32.9679C34.7537 32.968 35.6304 32.6066 36.2786 31.9625L44.1842 24.0566C44.1925 24.0482 44.2001 24.039 44.2083 24.0305C44.2191 24.0192 44.2296 24.0076 44.2402 23.996C44.2517 23.9833 44.264 23.9712 44.2752 23.9581L47.4864 20.2014L52.4854 17.7019C52.8937 17.4977 53.2572 17.2142 53.5548 16.868C53.8523 16.5219 54.078 16.1199 54.2185 15.6856C54.3591 15.2512 54.4117 14.7933 54.3734 14.3384C54.335 13.8835 54.2065 13.4408 53.9952 13.0362V13.0362ZM42.6946 20.5168L34.5265 14.5763C34.2293 14.36 33.8705 14.2448 33.503 14.2475C33.1354 14.2502 32.7784 14.3707 32.4844 14.5913L29.7345 16.6538C28.8402 17.3191 27.7553 17.6784 26.6406 17.6784C25.526 17.6784 24.4411 17.3191 23.5468 16.6538L22.3824 15.7804L30.79 7.3725H35.2253C35.228 7.37252 35.2306 7.37293 35.2333 7.37293L35.2392 7.3725H38.4897L44.3451 18.586L42.6946 20.5168ZM9.33563 4.27856L13.1355 6.17848L7.85186 16.297L4.05202 14.3971L9.33563 4.27856ZM33.8477 29.5316L21.396 26.4187L10.7796 18.117L16.6311 6.91087L27.0991 3.85916L28.7533 4.60769C28.6139 4.70917 28.4822 4.82087 28.3594 4.94187L19.9515 13.3497C19.6033 13.698 19.334 14.117 19.1618 14.5784C18.9896 15.0398 18.9185 15.5328 18.9534 16.0241C18.9884 16.5153 19.1284 16.9933 19.3641 17.4257C19.5999 17.8581 19.9257 18.2348 20.3197 18.5303L21.4844 19.4038C22.9748 20.5127 24.7829 21.1115 26.6406 21.1115C28.4983 21.1115 30.3065 20.5127 31.7969 19.4038L33.5314 18.1029L40.3311 23.0482L33.8477 29.5316ZM50.948 14.6274L47.1481 16.5273L41.8645 6.40875L45.6644 4.50893L50.9501 14.6262L50.948 14.6274ZM25.7298 36.1488C25.6754 36.3679 25.5782 36.5741 25.4439 36.7556C25.3096 36.9371 25.1408 37.0903 24.9472 37.2065C24.7536 37.3226 24.539 37.3995 24.3156 37.4325C24.0923 37.4656 23.8646 37.4543 23.6456 37.3992L17.1703 35.7806C16.6449 35.6484 16.158 35.3947 15.7486 35.0399L10.9037 30.8284C10.5597 30.5294 10.3485 30.106 10.3167 29.6512C10.2849 29.1965 10.435 28.7477 10.734 28.4037C11.033 28.0596 11.4565 27.8485 11.9112 27.8166C12.366 27.7848 12.8147 27.9349 13.1588 28.234L18.0041 32.4457L24.4794 34.0645C24.6984 34.1193 24.9044 34.2166 25.0858 34.3509C25.2671 34.4853 25.4202 34.6541 25.5364 34.8476C25.6525 35.0412 25.7293 35.2557 25.7625 35.479C25.7957 35.7022 25.7846 35.9298 25.7298 36.1488Z" fill="#FC9831"/>
</svg>
