<svg width="55" height="55" viewBox="0 0 55 55" fill="none" xmlns="http://www.w3.org/2000/svg">
<path d="M13.5175 14.1349L12.6009 15.7226L13.5175 14.1349ZM11.0131 14.806L9.42542 13.8893L9.42542 13.8893L11.0131 14.806ZM8.26314 19.5691L9.85085 20.4858H9.85085L8.26314 19.5691ZM8.93418 22.0735L8.01752 23.6612H8.01752L8.93418 22.0735ZM8.93426 32.9266L8.0176 31.3389H8.0176L8.93426 32.9266ZM8.26322 35.431L6.6755 36.3476H6.6755L8.26322 35.431ZM11.0132 40.1941L9.4255 41.1108H9.4255L11.0132 40.1941ZM13.5176 40.8652L14.4343 42.4529H14.4343L13.5176 40.8652ZM41.4823 40.8652L40.5656 42.4529V42.4529L41.4823 40.8652ZM43.9867 40.1941L42.399 39.2774V39.2775L43.9867 40.1941ZM46.7367 35.431L45.149 34.5143V34.5143L46.7367 35.431ZM46.0656 32.9266L45.149 34.5143L46.0656 32.9266ZM46.0657 22.0735L46.9824 23.6612L46.0657 22.0735ZM46.7368 19.5691L48.3245 18.6524V18.6524L46.7368 19.5691ZM43.9868 14.806L45.5745 13.8893L45.5745 13.8893L43.9868 14.806ZM41.4824 14.1349L40.5657 12.5472V12.5472L41.4824 14.1349ZM33.2834 15.0218L32.5114 16.6847L33.2834 15.0218ZM37.5587 16.4003L36.642 14.8126L37.5587 16.4003ZM35.4119 16.2529L34.3558 17.7515L35.4119 16.2529ZM41.1957 26.2687L39.3695 26.4308L41.1957 26.2687ZM42.1422 24.3388L41.2255 22.751L42.1422 24.3388ZM35.4118 38.7471L34.3557 37.2486L35.4118 38.7471ZM37.5586 38.5998L38.4753 37.0121L37.5586 38.5998ZM42.1422 30.6614L43.0588 29.0737L42.1422 30.6614ZM41.1956 28.7314L39.3695 28.5693L41.1956 28.7314ZM17.4414 38.5997L16.5247 37.012L17.4414 38.5997ZM19.5882 38.7471L18.5321 40.2457L19.5882 38.7471ZM33.2834 39.9782L34.0555 41.6411L33.2834 39.9782ZM13.8044 28.7313L11.9783 28.8934L13.8044 28.7313ZM12.8579 30.6613L11.9412 29.0736L12.8579 30.6613ZM13.8044 26.2688L11.9782 26.1067L13.8044 26.2688ZM19.5881 16.253L20.6442 17.7515L19.5881 16.253ZM21.7167 15.0218L20.9446 13.3589L21.7167 15.0218ZM24.7501 8.70833V5.04167C22.725 5.04167 21.0834 6.68329 21.0834 8.70833H24.7501ZM24.7501 13.2359V8.70833H21.0834V13.2359H24.7501ZM20.6442 17.7515C21.2235 17.3433 21.8405 16.9856 22.4887 16.6847L20.9446 13.3589C20.0959 13.753 19.2889 14.2209 18.532 14.7544L20.6442 17.7515ZM12.6009 15.7226L16.5246 17.988L18.358 14.8126L14.4342 12.5472L12.6009 15.7226ZM12.6009 15.7226L12.6009 15.7226L14.4342 12.5472C12.6804 11.5347 10.4379 12.1356 9.42542 13.8893L12.6009 15.7226ZM9.85085 20.4858L12.6009 15.7226L9.42542 13.8893L6.67542 18.6524L9.85085 20.4858ZM9.85085 20.4858L9.85085 20.4858L6.67543 18.6524C5.6629 20.4062 6.26378 22.6487 8.01752 23.6612L9.85085 20.4858ZM13.7746 22.7511L9.85085 20.4858L8.01752 23.6612L11.9412 25.9266L13.7746 22.7511ZM15.5834 27.5C15.5834 27.1392 15.5993 26.7826 15.6306 26.4308L11.9782 26.1067C11.9375 26.5662 11.9167 27.0309 11.9167 27.5H15.5834ZM15.6306 28.5692C15.5993 28.2174 15.5834 27.8608 15.5834 27.5H11.9167C11.9167 27.9692 11.9375 28.4339 11.9783 28.8934L15.6306 28.5692ZM9.85093 34.5143L13.7746 32.249L11.9412 29.0736L8.0176 31.3389L9.85093 34.5143ZM9.85093 34.5143L9.85093 34.5143L8.0176 31.3389C6.26386 32.3514 5.66298 34.5939 6.6755 36.3476L9.85093 34.5143ZM12.6009 39.2774L9.85093 34.5143L6.6755 36.3476L9.4255 41.1108L12.6009 39.2774ZM12.6009 39.2774H12.6009L9.4255 41.1108C10.438 42.8645 12.6805 43.4654 14.4343 42.4529L12.6009 39.2774ZM16.5247 37.012L12.6009 39.2774L14.4343 42.4529L18.3581 40.1875L16.5247 37.012ZM22.4887 38.3153C21.8405 38.0144 21.2236 37.6568 20.6443 37.2485L18.5321 40.2457C19.289 40.7791 20.0959 41.247 20.9446 41.6411L22.4887 38.3153ZM24.7501 46.2917V41.7641H21.0834V46.2917H24.7501ZM24.7501 46.2917H21.0834C21.0834 48.3167 22.725 49.9583 24.7501 49.9583V46.2917ZM30.2501 46.2917H24.7501V49.9583H30.2501V46.2917ZM30.25 46.2917H30.2501V49.9583C32.2751 49.9583 33.9167 48.3167 33.9167 46.2917H30.25ZM30.25 41.7641V46.2917H33.9167V41.7641H30.25ZM34.3557 37.2486C33.7764 37.6568 33.1595 38.0144 32.5114 38.3153L34.0555 41.6411C34.9041 41.2471 35.711 40.7791 36.4679 40.2457L34.3557 37.2486ZM42.399 39.2775L38.4753 37.0121L36.6419 40.1875L40.5656 42.4529L42.399 39.2775ZM42.399 39.2775V39.2774L40.5656 42.4529C42.3194 43.4654 44.5619 42.8645 45.5744 41.1108L42.399 39.2775ZM45.149 34.5143L42.399 39.2774L45.5744 41.1108L48.3244 36.3476L45.149 34.5143ZM45.149 34.5143L45.149 34.5143L48.3244 36.3476C49.3369 34.5939 48.736 32.3514 46.9823 31.3389L45.149 34.5143ZM41.2255 32.2491L45.149 34.5143L46.9823 31.3389L43.0588 29.0737L41.2255 32.2491ZM39.4167 27.5C39.4167 27.8608 39.4007 28.2175 39.3695 28.5693L43.0218 28.8935C43.0626 28.434 43.0834 27.9692 43.0834 27.5H39.4167ZM39.3695 26.4308C39.4007 26.7826 39.4167 27.1392 39.4167 27.5H43.0834C43.0834 27.0309 43.0626 26.5661 43.0218 26.1067L39.3695 26.4308ZM45.1491 20.4858L41.2255 22.751L43.0588 25.9265L46.9824 23.6612L45.1491 20.4858ZM45.1491 20.4858L46.9824 23.6612C48.7361 22.6487 49.337 20.4062 48.3245 18.6524L45.1491 20.4858ZM42.3991 15.7226L45.1491 20.4858L48.3245 18.6524L45.5745 13.8893L42.3991 15.7226ZM42.399 15.7226L42.3991 15.7226L45.5745 13.8893C44.562 12.1356 42.3195 11.5347 40.5657 12.5472L42.399 15.7226ZM38.4754 17.988L42.3991 15.7226L40.5657 12.5472L36.642 14.8126L38.4754 17.988ZM32.5114 16.6847C33.1596 16.9856 33.7765 17.3433 34.3558 17.7515L36.468 14.7544C35.7111 14.2209 34.9042 13.753 34.0555 13.3589L32.5114 16.6847ZM30.25 8.70833V13.2359H33.9167V8.70833H30.25ZM30.2501 8.70833H30.25H33.9167C33.9167 6.68329 32.2751 5.04167 30.2501 5.04167V8.70833ZM24.7501 8.70833H30.2501V5.04167H24.7501V8.70833ZM34.0555 13.3589C33.992 13.3295 33.9507 13.2892 33.9302 13.2594C33.9124 13.2334 33.9167 13.2268 33.9167 13.2359H30.25C30.25 14.8222 31.251 16.0995 32.5114 16.6847L34.0555 13.3589ZM36.642 14.8126C36.6499 14.808 36.6464 14.815 36.6153 14.8126C36.5797 14.8098 36.5246 14.7943 36.468 14.7544L34.3558 17.7515C35.4934 18.5533 37.1013 18.7813 38.4754 17.988L36.642 14.8126ZM43.0218 26.1067C43.0157 26.0376 43.0298 25.9821 43.0453 25.9497C43.0588 25.9216 43.0667 25.922 43.0588 25.9265L41.2255 22.751C39.8534 23.5432 39.2467 25.0467 39.3695 26.4308L43.0218 26.1067ZM36.4679 40.2457C36.5245 40.2058 36.5796 40.1903 36.6152 40.1875C36.6462 40.185 36.6498 40.192 36.6419 40.1875L38.4753 37.0121C37.1012 36.2188 35.4933 36.4468 34.3557 37.2486L36.4679 40.2457ZM43.0588 29.0737C43.0666 29.0782 43.0588 29.0786 43.0453 29.0504C43.0298 29.018 43.0157 28.9625 43.0218 28.8935L39.3695 28.5693C39.2466 29.9534 39.8534 31.4569 41.2255 32.2491L43.0588 29.0737ZM20.9446 41.6411C21.0081 41.6705 21.0494 41.7109 21.0699 41.7407C21.0877 41.7666 21.0834 41.7732 21.0834 41.7641H24.7501C24.7501 40.1778 23.7491 38.9005 22.4887 38.3153L20.9446 41.6411ZM18.3581 40.1875C18.3502 40.192 18.3537 40.185 18.3848 40.1874C18.4204 40.1902 18.4755 40.2058 18.5321 40.2457L20.6443 37.2485C19.5067 36.4468 17.8988 36.2187 16.5247 37.012L18.3581 40.1875ZM33.9167 41.7641C33.9167 41.7732 33.9124 41.7666 33.9302 41.7406C33.9507 41.7108 33.992 41.6705 34.0555 41.6411L32.5114 38.3153C31.251 38.9005 30.25 40.1778 30.25 41.7641H33.9167ZM11.9783 28.8934C11.9844 28.9625 11.9702 29.0179 11.9548 29.0503C11.9413 29.0785 11.9334 29.0781 11.9412 29.0736L13.7746 32.249C15.1467 31.4568 15.7534 29.9533 15.6306 28.5692L11.9783 28.8934ZM11.9412 25.9266C11.9334 25.922 11.9413 25.9216 11.9548 25.9498C11.9702 25.9822 11.9844 26.0377 11.9782 26.1067L15.6306 26.4308C15.7534 25.0468 15.1467 23.5433 13.7746 22.7511L11.9412 25.9266ZM18.532 14.7544C18.4754 14.7943 18.4203 14.8098 18.3847 14.8126C18.3536 14.8151 18.3501 14.8081 18.358 14.8126L16.5246 17.988C17.8987 18.7814 19.5066 18.5533 20.6442 17.7515L18.532 14.7544ZM21.0834 13.2359C21.0834 13.2268 21.0877 13.2334 21.0699 13.2593C21.0494 13.2891 21.0081 13.3295 20.9446 13.3589L22.4887 16.6847C23.7491 16.0995 24.7501 14.8222 24.7501 13.2359H21.0834Z" fill="#FC9831"/>
<circle cx="27.5" cy="27.5" r="6.875" stroke="#FC9831" stroke-width="3.66667" stroke-linecap="round" stroke-linejoin="round"/>
</svg>
