<svg width="55" height="55" viewBox="0 0 55 55" fill="none" xmlns="http://www.w3.org/2000/svg">
<path d="M27.1373 1.02108C25.3649 1.80939 4.39651 11.9745 4.30322 12.099C4.20994 12.2234 4.17884 12.8976 4.17884 14.5676C4.17884 17.5134 4.03373 17.3163 6.17929 17.3163H7.70294V18.81C7.70294 20.1584 7.72367 20.3244 7.9206 20.5733C8.10717 20.8015 8.21082 20.843 8.69798 20.843H9.25768V41.3806H8.73944C8.31447 41.3806 8.159 41.4325 7.96206 41.6399C7.7133 41.8785 7.70294 41.9304 7.70294 43.4033V44.9073H6.21038C4.86293 44.9073 4.69709 44.928 4.44833 45.1251L4.17884 45.3326V48.7451H2.78994C0.872414 48.7451 0.965699 48.6103 0.965699 51.4109C0.965699 53.5165 0.965699 53.5269 1.22482 53.7758L1.47358 54.0351H53.5265L53.7753 53.7758C54.0344 53.5269 54.0344 53.5165 54.0344 51.4109C54.0344 48.6103 54.1277 48.7451 52.2102 48.7451H50.8213V45.3326L50.5518 45.1251C50.303 44.928 50.1372 44.9073 48.7897 44.9073H47.2972V43.4033C47.2972 41.9304 47.2868 41.8785 47.038 41.6399C46.8411 41.4325 46.6856 41.3806 46.2607 41.3806H45.7424V20.843H46.3021C46.7893 20.843 46.8929 20.8015 47.0795 20.5733C47.2764 20.3244 47.2972 20.1584 47.2972 18.81V17.3163H48.8312C50.956 17.3163 50.8213 17.5134 50.8213 14.5572C50.8213 12.8976 50.7902 12.2234 50.6969 12.099C50.5414 11.8915 28.0079 1.04182 27.6037 0.979586C27.4586 0.948469 27.2513 0.969214 27.1373 1.02108ZM38.4869 7.80472L49.3183 13.0117L49.3805 15.7605H5.61958L5.68177 13.0117L16.5132 7.80472C22.473 4.9419 27.4171 2.5977 27.5001 2.5977C27.583 2.5977 32.5271 4.9419 38.4869 7.80472ZM15.8394 19.339L12.5537 19.3701L9.25768 19.3908V17.3163H15.9016L15.8394 19.339ZM37.6577 18.8722C37.6577 20.7497 37.7096 20.843 38.6424 20.843H39.2125V41.3806H38.6735C38.2693 41.3806 38.0827 41.4325 37.8961 41.6088C37.6681 41.8267 37.6577 41.8993 37.6577 43.3722V44.9073H17.3424V43.3825C17.3424 41.9615 17.332 41.8474 17.1143 41.6192C16.9381 41.4325 16.7827 41.3806 16.337 41.3806H15.7876V20.843H16.3577C17.2905 20.843 17.3424 20.7497 17.3424 18.8722V17.3163H37.6577V18.8722ZM45.7424 19.3908L42.4567 19.3701L39.1607 19.339L39.0985 17.3163H45.7424V19.3908ZM14.2329 41.3806H10.8124V20.9467H14.2329V41.3806ZM44.1877 41.3806H40.7672V20.9467H44.1877V41.3806ZM15.8913 44.9073H9.25768V42.9365H15.8913V44.9073ZM45.7424 44.9073H39.1088V42.9365H45.7424V44.9073ZM49.3183 48.6933H5.68177L5.61958 46.4632H49.3805L49.3183 48.6933ZM52.4797 52.4793H2.52045V50.2492H52.4797V52.4793Z" fill="#FC9831"/>
<path d="M26.4014 6.9438C25.2923 7.30684 24.432 8.24036 24.1211 9.45395C23.9138 10.2526 23.9967 10.9683 24.3802 11.7774C25.6344 14.3809 29.3036 14.3913 30.5992 11.8085C31.0034 10.9995 31.0863 10.2734 30.879 9.45395C30.5681 8.21962 29.7078 7.29646 28.5573 6.9438C27.7385 6.68448 27.2202 6.68448 26.4014 6.9438ZM28.4122 8.51005C29.1895 8.89383 29.6041 9.79625 29.4279 10.7298C29.3347 11.2173 28.6402 11.9745 28.153 12.1404C27.3135 12.4101 26.3495 12.0782 25.8313 11.321C25.4582 10.7713 25.4789 9.73401 25.8624 9.15315C26.391 8.34409 27.5001 8.0744 28.4122 8.51005Z" fill="#FC9831"/>
<path d="M26.9403 23.042C26.8367 23.1872 26.7745 23.4984 26.7745 23.8303C26.7745 24.2556 26.733 24.3904 26.5983 24.4319C26.4946 24.463 26.1215 24.629 25.7587 24.8053C25.0125 25.1684 24.4838 25.7181 24.09 26.5479C23.8619 27.0354 23.8205 27.2532 23.8205 28.1038C23.8205 28.9336 23.8619 29.1618 24.0692 29.5559C24.5668 30.5102 25.8106 31.3815 27.3964 31.8898C29.1792 32.4602 29.9151 33.2693 29.7389 34.4725C29.5212 35.9039 27.9043 36.796 26.619 36.2047C25.8106 35.8313 25.3649 35.2297 25.2612 34.3584C25.1472 33.4975 24.5357 33.1345 23.9656 33.5909C23.7479 33.7672 23.7168 33.8709 23.7376 34.3584C23.779 35.3023 24.1314 36.0492 24.8466 36.7752C25.3338 37.2627 25.6344 37.4702 26.1319 37.6465L26.7745 37.8851V38.4867C26.7745 39.0053 26.8056 39.1091 27.044 39.2958C27.3964 39.5654 27.6037 39.5654 27.9561 39.2958C28.1945 39.1091 28.2256 39.0053 28.2256 38.4867V37.8851L28.8475 37.6569C30.0602 37.2109 31.0449 35.9869 31.2211 34.6903C31.3869 33.4664 31.0449 32.4706 30.1639 31.6616C29.6041 31.1429 29.0133 30.8318 27.7592 30.3961C26.6501 30.002 26.0593 29.67 25.6965 29.2448C24.5149 27.8341 25.9557 25.5833 27.8525 25.8633C28.4536 25.9567 29.2414 26.496 29.4901 26.9732C29.5938 27.191 29.7285 27.5955 29.77 27.886C29.8736 28.5394 30.112 28.8299 30.5681 28.8299C31.1071 28.8299 31.3766 28.415 31.2936 27.6993C31.1278 26.3405 30.112 25.0335 28.8475 24.5667L28.2256 24.3385V23.7888C28.2256 23.3635 28.1738 23.1768 28.0183 23.0212C27.7281 22.7308 27.1476 22.7412 26.9403 23.042Z" fill="#FC9831"/>
<path d="M27.1373 1.02108C25.3649 1.80939 4.39651 11.9745 4.30322 12.099C4.20994 12.2234 4.17884 12.8976 4.17884 14.5676C4.17884 17.5134 4.03373 17.3163 6.17929 17.3163H7.70294V18.81C7.70294 20.1584 7.72367 20.3244 7.9206 20.5733C8.10717 20.8015 8.21082 20.843 8.69798 20.843H9.25768V41.3806H8.73944C8.31447 41.3806 8.159 41.4325 7.96206 41.6399C7.7133 41.8785 7.70294 41.9304 7.70294 43.4033V44.9073H6.21038C4.86293 44.9073 4.69709 44.928 4.44833 45.1251L4.17884 45.3326V48.7451H2.78994C0.872414 48.7451 0.965699 48.6103 0.965699 51.4109C0.965699 53.5165 0.965699 53.5269 1.22482 53.7758L1.47358 54.0351H53.5265L53.7753 53.7758C54.0344 53.5269 54.0344 53.5165 54.0344 51.4109C54.0344 48.6103 54.1277 48.7451 52.2102 48.7451H50.8213V45.3326L50.5518 45.1251C50.303 44.928 50.1372 44.9073 48.7897 44.9073H47.2972V43.4033C47.2972 41.9304 47.2868 41.8785 47.038 41.6399C46.8411 41.4325 46.6856 41.3806 46.2607 41.3806H45.7424V20.843H46.3021C46.7893 20.843 46.8929 20.8015 47.0795 20.5733C47.2764 20.3244 47.2972 20.1584 47.2972 18.81V17.3163H48.8312C50.956 17.3163 50.8213 17.5134 50.8213 14.5572C50.8213 12.8976 50.7902 12.2234 50.6969 12.099C50.5414 11.8915 28.0079 1.04182 27.6037 0.979586C27.4586 0.948469 27.2513 0.969214 27.1373 1.02108ZM38.4869 7.80472L49.3183 13.0117L49.3805 15.7605H5.61958L5.68177 13.0117L16.5132 7.80472C22.473 4.9419 27.4171 2.5977 27.5001 2.5977C27.583 2.5977 32.5271 4.9419 38.4869 7.80472ZM15.8394 19.339L12.5537 19.3701L9.25768 19.3908V17.3163H15.9016L15.8394 19.339ZM37.6577 18.8722C37.6577 20.7497 37.7096 20.843 38.6424 20.843H39.2125V41.3806H38.6735C38.2693 41.3806 38.0827 41.4325 37.8961 41.6088C37.6681 41.8267 37.6577 41.8993 37.6577 43.3722V44.9073H17.3424V43.3825C17.3424 41.9615 17.332 41.8474 17.1143 41.6192C16.9381 41.4325 16.7827 41.3806 16.337 41.3806H15.7876V20.843H16.3577C17.2905 20.843 17.3424 20.7497 17.3424 18.8722V17.3163H37.6577V18.8722ZM45.7424 19.3908L42.4567 19.3701L39.1607 19.339L39.0985 17.3163H45.7424V19.3908ZM14.2329 41.3806H10.8124V20.9467H14.2329V41.3806ZM44.1877 41.3806H40.7672V20.9467H44.1877V41.3806ZM15.8913 44.9073H9.25768V42.9365H15.8913V44.9073ZM45.7424 44.9073H39.1088V42.9365H45.7424V44.9073ZM49.3183 48.6933H5.68177L5.61958 46.4632H49.3805L49.3183 48.6933ZM52.4797 52.4793H2.52045V50.2492H52.4797V52.4793Z" stroke="#FC9831"/>
<path d="M26.4014 6.9438C25.2923 7.30684 24.432 8.24036 24.1211 9.45395C23.9138 10.2526 23.9967 10.9683 24.3802 11.7774C25.6344 14.3809 29.3036 14.3913 30.5992 11.8085C31.0034 10.9995 31.0863 10.2734 30.879 9.45395C30.5681 8.21962 29.7078 7.29646 28.5573 6.9438C27.7385 6.68448 27.2202 6.68448 26.4014 6.9438ZM28.4122 8.51005C29.1895 8.89383 29.6041 9.79625 29.4279 10.7298C29.3347 11.2173 28.6402 11.9745 28.153 12.1404C27.3135 12.4101 26.3495 12.0782 25.8313 11.321C25.4582 10.7713 25.4789 9.73401 25.8624 9.15315C26.391 8.34409 27.5001 8.0744 28.4122 8.51005Z" stroke="#FC9831"/>
<path d="M26.9403 23.042C26.8367 23.1872 26.7745 23.4984 26.7745 23.8303C26.7745 24.2556 26.733 24.3904 26.5983 24.4319C26.4946 24.463 26.1215 24.629 25.7587 24.8053C25.0125 25.1684 24.4838 25.7181 24.09 26.5479C23.8619 27.0354 23.8205 27.2532 23.8205 28.1038C23.8205 28.9336 23.8619 29.1618 24.0692 29.5559C24.5668 30.5102 25.8106 31.3815 27.3964 31.8898C29.1792 32.4602 29.9151 33.2693 29.7389 34.4725C29.5212 35.9039 27.9043 36.796 26.619 36.2047C25.8106 35.8313 25.3649 35.2297 25.2612 34.3584C25.1472 33.4975 24.5357 33.1345 23.9656 33.5909C23.7479 33.7672 23.7168 33.8709 23.7376 34.3584C23.779 35.3023 24.1314 36.0492 24.8466 36.7752C25.3338 37.2627 25.6344 37.4702 26.1319 37.6465L26.7745 37.8851V38.4867C26.7745 39.0053 26.8056 39.1091 27.044 39.2958C27.3964 39.5654 27.6037 39.5654 27.9561 39.2958C28.1945 39.1091 28.2256 39.0053 28.2256 38.4867V37.8851L28.8475 37.6569C30.0602 37.2109 31.0449 35.9869 31.2211 34.6903C31.3869 33.4664 31.0449 32.4706 30.1639 31.6616C29.6041 31.1429 29.0133 30.8318 27.7592 30.3961C26.6501 30.002 26.0593 29.67 25.6965 29.2448C24.5149 27.8341 25.9557 25.5833 27.8525 25.8633C28.4536 25.9567 29.2414 26.496 29.4901 26.9732C29.5938 27.191 29.7285 27.5955 29.77 27.886C29.8736 28.5394 30.112 28.8299 30.5681 28.8299C31.1071 28.8299 31.3766 28.415 31.2936 27.6993C31.1278 26.3405 30.112 25.0335 28.8475 24.5667L28.2256 24.3385V23.7888C28.2256 23.3635 28.1738 23.1768 28.0183 23.0212C27.7281 22.7308 27.1476 22.7412 26.9403 23.042Z" stroke="#FC9831"/>
</svg>
