<svg width="55" height="56" viewBox="0 0 55 56" fill="none" xmlns="http://www.w3.org/2000/svg">
<path d="M16.0416 38.9935L16.0416 41.2851H16.0416V38.9935ZM38.9583 38.9935V41.2851V38.9935ZM41.6516 31.9672L39.9902 33.5457L41.6516 31.9672ZM13.75 38.9934L13.75 41.2851L13.75 38.9934ZM41.25 38.9934L41.25 41.2851L41.25 38.9934ZM18.3333 20.6601C18.3333 15.5975 22.4374 11.4934 27.5 11.4934V6.91012C19.9061 6.91012 13.75 13.0662 13.75 20.6601H18.3333ZM18.3333 26.9768V20.6601H13.75V26.9768H18.3333ZM13.75 36.7018C13.75 35.4776 14.2269 34.3697 15.0098 33.5457L11.6869 30.3888C10.1272 32.0305 9.16668 34.2564 9.16668 36.7018H13.75ZM16.0416 36.7018H13.75L13.75 41.2851L16.0416 41.2851L16.0416 36.7018ZM38.9583 36.7018H16.0416V41.2851H38.9583V36.7018ZM41.25 36.7018H38.9583L38.9583 41.2851L41.25 41.2851L41.25 36.7018ZM39.9902 33.5457C40.7731 34.3697 41.25 35.4776 41.25 36.7018H45.8333C45.8333 34.2564 44.8728 32.0305 43.313 30.3888L39.9902 33.5457ZM36.6666 20.6601V26.9767H41.25V20.6601H36.6666ZM27.5 11.4934C32.5626 11.4934 36.6666 15.5975 36.6666 20.6601H41.25C41.25 13.0662 35.0939 6.91012 27.5 6.91012V11.4934ZM43.313 30.3888C41.9199 28.9225 41.25 27.897 41.25 26.9767H36.6666C36.6666 29.9414 38.7075 32.1955 39.9902 33.5457L43.313 30.3888ZM9.16668 36.7018C9.16668 39.2331 11.2187 41.2851 13.75 41.2851L13.75 36.7018H9.16668ZM41.25 41.2851C43.7813 41.2851 45.8333 39.2331 45.8333 36.7018H41.25H41.25L41.25 41.2851ZM13.75 26.9768C13.75 27.8971 13.08 28.9225 11.6869 30.3888L15.0098 33.5457C16.2925 32.1955 18.3333 29.9415 18.3333 26.9768H13.75Z" fill="#FC9831"/>
<path d="M31.6195 45.5858C31.2382 46.3675 30.6424 47.0246 29.9016 47.4804C29.1608 47.9361 28.3057 48.1716 27.436 48.1595C26.5663 48.1474 25.7181 47.888 24.9903 47.4118C24.2626 46.9356 23.6853 46.2621 23.326 45.47" stroke="#FC9831" stroke-width="4.58333" stroke-linecap="round" stroke-linejoin="round"/>
<path d="M27.5 6.91003V9.2017" stroke="#FC9831" stroke-width="4.58333" stroke-linecap="round" stroke-linejoin="round"/>
</svg>
