<svg width="47" height="29" viewBox="0 0 47 29" fill="none" xmlns="http://www.w3.org/2000/svg">
<path d="M10.4146 19.7479L9.75002 20.4354V3.04167C9.75002 2.43388 9.50858 1.85098 9.0788 1.42121C8.64903 0.991443 8.06614 0.75 7.45835 0.75C6.85056 0.75 6.26767 0.991443 5.8379 1.42121C5.40813 1.85098 5.16669 2.43388 5.16669 3.04167V20.4354L4.5021 19.7479C4.07057 19.3164 3.48529 19.074 2.87502 19.074C2.26474 19.074 1.67946 19.3164 1.24793 19.7479C0.816405 20.1794 0.573975 20.7647 0.573975 21.375C0.573975 21.9853 0.816405 22.5706 1.24793 23.0021L5.83127 27.5854C6.04921 27.7941 6.30621 27.9576 6.58752 28.0667C6.86183 28.1879 7.15844 28.2505 7.45835 28.2505C7.75826 28.2505 8.05487 28.1879 8.32919 28.0667C8.61049 27.9576 8.86749 27.7941 9.08543 27.5854L13.6688 23.0021C13.8824 22.7884 14.0519 22.5347 14.1676 22.2556C14.2832 21.9764 14.3427 21.6772 14.3427 21.375C14.3427 21.0728 14.2832 20.7736 14.1676 20.4944C14.0519 20.2153 13.8824 19.9616 13.6688 19.7479C13.4551 19.5342 13.2014 19.3648 12.9223 19.2491C12.6431 19.1335 12.3439 19.074 12.0417 19.074C11.7395 19.074 11.4403 19.1335 11.1611 19.2491C10.8819 19.3648 10.6283 19.5342 10.4146 19.7479ZM21.2084 5.33333H44.125C44.7328 5.33333 45.3157 5.09189 45.7455 4.66212C46.1752 4.23235 46.4167 3.64945 46.4167 3.04167C46.4167 2.43388 46.1752 1.85098 45.7455 1.42121C45.3157 0.991443 44.7328 0.75 44.125 0.75H21.2084C20.6006 0.75 20.0177 0.991443 19.5879 1.42121C19.1581 1.85098 18.9167 2.43388 18.9167 3.04167C18.9167 3.64945 19.1581 4.23235 19.5879 4.66212C20.0177 5.09189 20.6006 5.33333 21.2084 5.33333ZM44.125 12.2083H21.2084C20.6006 12.2083 20.0177 12.4498 19.5879 12.8795C19.1581 13.3093 18.9167 13.8922 18.9167 14.5C18.9167 15.1078 19.1581 15.6907 19.5879 16.1205C20.0177 16.5502 20.6006 16.7917 21.2084 16.7917H44.125C44.7328 16.7917 45.3157 16.5502 45.7455 16.1205C46.1752 15.6907 46.4167 15.1078 46.4167 14.5C46.4167 13.8922 46.1752 13.3093 45.7455 12.8795C45.3157 12.4498 44.7328 12.2083 44.125 12.2083ZM44.125 23.6667H21.2084C20.6006 23.6667 20.0177 23.9081 19.5879 24.3379C19.1581 24.7677 18.9167 25.3505 18.9167 25.9583C18.9167 26.5661 19.1581 27.149 19.5879 27.5788C20.0177 28.0086 20.6006 28.25 21.2084 28.25H44.125C44.7328 28.25 45.3157 28.0086 45.7455 27.5788C46.1752 27.149 46.4167 26.5661 46.4167 25.9583C46.4167 25.3505 46.1752 24.7677 45.7455 24.3379C45.3157 23.9081 44.7328 23.6667 44.125 23.6667Z" fill="#FC9831"/>
</svg>
