<svg width="191" height="56" viewBox="0 0 191 56" fill="none" xmlns="http://www.w3.org/2000/svg">
<path d="M183.926 55.6268H7.07407C3.1851 55.6268 0 52.5171 0 48.7201V7.27982C0 3.48286 3.1851 0.373111 7.07407 0.373111H183.926C187.815 0.373111 191 3.48286 191 7.27982V48.7201C191 52.5171 187.815 55.6268 183.926 55.6268Z" fill="black"/>
<path d="M183.926 1.47991C187.201 1.47991 189.866 4.08202 189.866 7.27982V48.7201C189.866 51.9179 187.201 54.52 183.926 54.52H7.07407C3.79878 54.52 1.13362 51.9179 1.13362 48.7201V7.27982C1.13362 4.08202 3.79878 1.47991 7.07407 1.47991H183.926ZM183.926 0.373111H7.07407C3.1851 0.373111 0 3.48286 0 7.27982V48.7201C0 52.5171 3.1851 55.6268 7.07407 55.6268H183.926C187.815 55.6268 191 52.5171 191 48.7201V7.27982C191 3.48286 187.815 0.373111 183.926 0.373111Z" fill="#A6A6A6"/>
<path d="M67.087 14.5232C67.087 15.6766 66.7333 16.6004 66.0365 17.2893C65.2353 18.106 64.1919 18.517 62.9133 18.517C61.6912 18.517 60.6478 18.0991 59.7918 17.2755C58.9341 16.4398 58.5061 15.4141 58.5061 14.1865C58.5061 12.9588 58.9341 11.9332 59.7918 11.1043C60.6478 10.2738 61.6912 9.85596 62.9133 9.85596C63.5216 9.85596 64.1017 9.97855 64.6552 10.2065C65.207 10.4361 65.6562 10.7469 65.9816 11.1302L65.2424 11.8589C64.6747 11.2045 63.9019 10.8816 62.9133 10.8816C62.0219 10.8816 61.2491 11.1855 60.593 11.7985C59.9439 12.4132 59.6185 13.2092 59.6185 14.1865C59.6185 15.1638 59.9439 15.9667 60.593 16.5814C61.2491 17.1874 62.0219 17.4982 62.9133 17.4982C63.8594 17.4982 64.6552 17.1874 65.2831 16.5745C65.6969 16.1687 65.9321 15.6093 65.994 14.8944H62.9133V13.8964H67.0233C67.0728 14.1122 67.087 14.3211 67.087 14.5232Z" fill="white" stroke="white" stroke-width="0.16" stroke-miterlimit="10"/>
<path d="M73.6074 11.063H69.7468V13.6876H73.2272V14.6856H69.7468V17.3102H73.6074V18.3272H68.6538V10.046H73.6074V11.063Z" fill="white" stroke="white" stroke-width="0.16" stroke-miterlimit="10"/>
<path d="M78.2092 18.3272H77.1162V11.063H74.7482V10.046H80.579V11.063H78.2092V18.3272Z" fill="white" stroke="white" stroke-width="0.16" stroke-miterlimit="10"/>
<path d="M84.7987 18.3272V10.046H85.8899V18.3272H84.7987Z" fill="white" stroke="white" stroke-width="0.16" stroke-miterlimit="10"/>
<path d="M90.7267 18.3272H89.6426V11.063H87.2657V10.046H93.1036V11.063H90.7267V18.3272Z" fill="white" stroke="white" stroke-width="0.16" stroke-miterlimit="10"/>
<path d="M104.143 17.2617C103.306 18.0991 102.27 18.517 101.034 18.517C99.7904 18.517 98.7541 18.0991 97.9176 17.2617C97.0828 16.426 96.6672 15.4003 96.6672 14.1865C96.6672 12.9726 97.0828 11.947 97.9176 11.1113C98.7541 10.2738 99.7904 9.85596 101.034 9.85596C102.263 9.85596 103.299 10.2738 104.136 11.1182C104.978 11.9608 105.393 12.9795 105.393 14.1865C105.393 15.4003 104.978 16.426 104.143 17.2617ZM98.7258 16.5676C99.3554 17.1874 100.121 17.4982 101.034 17.4982C101.939 17.4982 102.712 17.1874 103.335 16.5676C103.962 15.9477 104.281 15.1517 104.281 14.1865C104.281 13.2213 103.962 12.4253 103.335 11.8054C102.712 11.1855 101.939 10.8747 101.034 10.8747C100.121 10.8747 99.3554 11.1855 98.7258 11.8054C98.098 12.4253 97.7796 13.2213 97.7796 14.1865C97.7796 15.1517 98.098 15.9477 98.7258 16.5676Z" fill="white" stroke="white" stroke-width="0.16" stroke-miterlimit="10"/>
<path d="M106.926 18.3272V10.046H108.253L112.377 16.4865H112.425L112.377 14.8945V10.046H113.468V18.3272H112.329L108.01 11.569H107.963L108.01 13.1679V18.3272H106.926Z" fill="white" stroke="white" stroke-width="0.16" stroke-miterlimit="10"/>
<path d="M96.3984 30.4208C93.0753 30.4208 90.3606 32.8899 90.3606 36.2966C90.3606 39.6757 93.0753 42.1708 96.3984 42.1708C99.7285 42.1708 102.443 39.6757 102.443 36.2966C102.443 32.8899 99.7285 30.4208 96.3984 30.4208ZM96.3984 39.8571C94.575 39.8571 93.0063 38.3876 93.0063 36.2966C93.0063 34.178 94.575 32.7345 96.3984 32.7345C98.2217 32.7345 99.7974 34.178 99.7974 36.2966C99.7974 38.3876 98.2217 39.8571 96.3984 39.8571ZM83.2247 30.4208C79.8945 30.4208 77.1869 32.8899 77.1869 36.2966C77.1869 39.6757 79.8945 42.1708 83.2247 42.1708C86.553 42.1708 89.2624 39.6757 89.2624 36.2966C89.2624 32.8899 86.553 30.4208 83.2247 30.4208ZM83.2247 39.8571C81.3996 39.8571 79.8256 38.3876 79.8256 36.2966C79.8256 34.178 81.3996 32.7345 83.2247 32.7345C85.048 32.7345 86.6167 34.178 86.6167 36.2966C86.6167 38.3876 85.048 39.8571 83.2247 39.8571ZM67.5485 32.2217V34.7185H73.6552C73.4766 36.1136 72.9991 37.1393 72.2669 37.8541C71.3756 38.7174 69.9873 39.6757 67.5485 39.6757C63.7904 39.6757 60.8476 36.7145 60.8476 33.0453C60.8476 29.3761 63.7904 26.4149 67.5485 26.4149C69.5806 26.4149 71.059 27.1901 72.1502 28.1951L73.9523 26.4356C72.4261 25.0128 70.3958 23.9198 67.5485 23.9198C62.3951 23.9198 58.064 28.0138 58.064 33.0453C58.064 38.0768 62.3951 42.1708 67.5485 42.1708C70.3339 42.1708 72.4261 41.2798 74.0708 39.6084C75.7562 37.9629 76.2815 35.6491 76.2815 33.7809C76.2815 33.2007 76.2319 32.6672 76.1435 32.2217H67.5485ZM131.65 34.1573C131.153 32.8433 129.62 30.4208 126.497 30.4208C123.402 30.4208 120.825 32.8018 120.825 36.2966C120.825 39.5877 123.375 42.1708 126.794 42.1708C129.558 42.1708 131.153 40.5253 131.809 39.567L129.758 38.2322C129.073 39.2095 128.141 39.8571 126.794 39.8571C125.455 39.8571 124.495 39.2579 123.879 38.0768L131.928 34.8255L131.65 34.1573ZM123.444 36.1136C123.375 33.8482 125.246 32.6879 126.587 32.6879C127.637 32.6879 128.529 33.2007 128.826 33.9345L123.444 36.1136ZM116.903 41.8134H119.548V24.5466H116.903V41.8134ZM112.57 31.7296H112.481C111.887 31.0424 110.753 30.4208 109.317 30.4208C106.304 30.4208 103.548 33.0039 103.548 36.3156C103.548 39.6084 106.304 42.1708 109.317 42.1708C110.753 42.1708 111.887 41.544 112.481 40.8361H112.57V41.6787C112.57 43.9251 111.341 45.1321 109.358 45.1321C107.742 45.1321 106.739 43.9924 106.325 43.0341L104.024 43.9717C104.687 45.5292 106.444 47.4458 109.358 47.4458C112.46 47.4458 115.077 45.6639 115.077 41.3282V30.7782H112.57V31.7296ZM109.544 39.8571C107.72 39.8571 106.194 38.3669 106.194 36.3156C106.194 34.2453 107.72 32.7345 109.544 32.7345C111.341 32.7345 112.757 34.2453 112.757 36.3156C112.757 38.3669 111.341 39.8571 109.544 39.8571ZM144.037 24.5466H137.709V41.8134H140.348V35.271H144.037C146.967 35.271 149.841 33.2007 149.841 29.9079C149.841 26.6169 146.96 24.5466 144.037 24.5466ZM144.106 32.8692H140.348V26.9484H144.106C146.076 26.9484 147.201 28.5456 147.201 29.9079C147.201 31.2444 146.076 32.8692 144.106 32.8692ZM160.417 30.3879C158.51 30.3879 156.528 31.2098 155.713 33.0315L158.054 33.9898C158.558 33.0315 159.485 32.7207 160.465 32.7207C161.834 32.7207 163.222 33.5236 163.243 34.9412V35.1225C162.766 34.8531 161.743 34.4543 160.486 34.4543C157.964 34.4543 155.394 35.8097 155.394 38.3393C155.394 40.653 157.46 42.1432 159.782 42.1432C161.558 42.1432 162.537 41.361 163.153 40.451H163.243V41.7857H165.791V35.1622C165.791 32.1008 163.45 30.3879 160.417 30.3879ZM160.099 39.8501C159.236 39.8501 158.033 39.4323 158.033 38.3876C158.033 37.0512 159.533 36.5384 160.831 36.5384C161.993 36.5384 162.537 36.7887 163.243 37.1185C163.036 38.7174 161.627 39.8501 160.099 39.8501ZM175.076 30.7661L172.043 38.2512H171.953L168.817 30.7661H165.972L170.683 41.2263L167.995 47.0469H170.752L178.012 30.7661H175.076ZM151.291 41.8134H153.937V24.5466H151.291V41.8134Z" fill="white"/>
<path d="M14.7635 10.7867C14.3479 11.2114 14.1074 11.8728 14.1074 12.7292V43.2776C14.1074 44.134 14.3479 44.7953 14.7635 45.2201L14.8661 45.3134L32.3992 28.202V27.7979L14.8661 10.6865L14.7635 10.7867Z" fill="url(#paint0_linear_110_5146)"/>
<path d="M38.2371 33.9086L32.3992 28.2019V27.7979L38.2441 22.0912L38.375 22.1654L45.297 26.0107C47.2724 27.102 47.2724 28.8977 45.297 29.9959L38.375 33.8343L38.2371 33.9086Z" fill="url(#paint1_linear_110_5146)"/>
<path d="M38.3752 33.8344L32.3993 28L14.7637 45.2201C15.4198 45.8935 16.4897 45.9747 17.7065 45.3013L38.3752 33.8344Z" fill="url(#paint2_linear_110_5146)"/>
<path d="M38.3752 22.1656L17.7065 10.6987C16.4897 10.0322 15.4198 10.1133 14.7637 10.7867L32.3993 28L38.3752 22.1656Z" fill="url(#paint3_linear_110_5146)"/>
<defs>
<linearGradient id="paint0_linear_110_5146" x1="30.8425" y1="43.5957" x2="7.66687" y2="19.8586" gradientUnits="userSpaceOnUse">
<stop stop-color="#00A0FF"/>
<stop offset="0.0066" stop-color="#00A1FF"/>
<stop offset="0.2601" stop-color="#00BEFF"/>
<stop offset="0.5122" stop-color="#00D2FF"/>
<stop offset="0.7604" stop-color="#00DFFF"/>
<stop offset="1" stop-color="#00E3FF"/>
</linearGradient>
<linearGradient id="paint1_linear_110_5146" x1="47.8693" y1="27.9979" x2="13.6352" y2="27.9979" gradientUnits="userSpaceOnUse">
<stop stop-color="#FFE000"/>
<stop offset="0.4087" stop-color="#FFBD00"/>
<stop offset="0.7754" stop-color="#FFA500"/>
<stop offset="1" stop-color="#FF9C00"/>
</linearGradient>
<linearGradient id="paint2_linear_110_5146" x1="35.1257" y1="24.8282" x2="3.69767" y2="-7.3613" gradientUnits="userSpaceOnUse">
<stop stop-color="#FF3A44"/>
<stop offset="1" stop-color="#C31162"/>
</linearGradient>
<linearGradient id="paint3_linear_110_5146" x1="10.3244" y1="55.3835" x2="24.3584" y2="41.0095" gradientUnits="userSpaceOnUse">
<stop stop-color="#32A071"/>
<stop offset="0.0685" stop-color="#2DA771"/>
<stop offset="0.4762" stop-color="#15CF74"/>
<stop offset="0.8009" stop-color="#06E775"/>
<stop offset="1" stop-color="#00F076"/>
</linearGradient>
</defs>
</svg>
